<?xml version="1.0" encoding="utf-8"?>
<!-- Generator: Adobe Illustrator 25.2.3, SVG Export Plug-In . SVG Version: 6.00 Build 0)  -->
<svg version="1.1" id="Layer_1" xmlns="http://www.w3.org/2000/svg" xmlns:xlink="http://www.w3.org/1999/xlink" x="0px" y="0px"
	 viewBox="0 0 430.3 143" style="enable-background:new 0 0 430.3 143;" xml:space="preserve">
<style type="text/css">
	.st0{fill:#2F538C;}
	.st1{fill:#244B7F;}
</style>
<path class="st0" d="M154.8,29.9c2.5,0.8,4.9,1.8,7.2,3c-2.4-1.6-5-2.9-7.7-4c-0.3-0.1-0.6-0.2-0.9-0.4c-5.4-2-11.1-3-16.9-2.8
	s-11.5,1.5-16.7,4c-1.4,0.7-2.9,1.4-4.3,2.3c-4.9,3-9.2,6.9-12.6,11.5c-5.8,8-8.7,17.3-8.3,27.2c0.3,7.9,3.9,15.7,10,21.9l0,0
	c1.9,1.9,4,3.7,6.3,5.2c2.2,1.5,4.6,2.7,7,3.6c4.3,1.7,8.6,2.4,12.9,2.3c5.6-0.2,9.9-1.7,12.7-4.4c0.8-0.8,1.5-1.6,2-2.6
	c1.6-2.8,1.6-5.6,1.6-6.1c-0.1-2.6-1-5-2.6-7c-0.5-0.6-1.1-1.2-1.7-1.7c-2.2-1.8-5.2-3-8.6-3.2c-1.5-0.1-3-0.4-4.4-0.7
	c-5.3-1.2-9.9-3.6-13.4-7l-0.2-0.2c-3.7-3.7-5.9-8.3-6.5-13.6c-0.1-0.8-0.2-1.5-0.2-2.2c-0.2-4.5,0.6-8.5,2.3-11.9
	c0.8-1.7,1.9-3.3,3.2-4.7c3.1-3.6,7.6-6.3,13.1-8.1c5.2-1.7,9.9-2.1,12.3-2.2h1.5C146.3,28,150.7,28.6,154.8,29.9z"/>
<g>
	<path class="st0" d="M238.4,110.6h-21.5l-2.2-17.9H190l-8.2,17.9h-21.1l41-80.9h21.9L238.4,110.6z M213.3,81.1l-3.9-30.7
		l-14.1,30.7H213.3z"/>
</g>
<path class="st0" d="M120.6,108c-2.5-0.9-4.8-2-7.1-3.3c2.3,1.7,4.9,3.1,7.5,4.3c0.3,0.1,0.6,0.3,0.9,0.4c5.3,2.2,11,3.4,16.8,3.4
	c5.8,0,11.5-1.1,16.9-3.4c1.4-0.6,2.9-1.3,4.4-2.1c5-2.8,9.4-6.5,13-11.1c6.1-7.7,9.3-17,9.2-26.8c0-7.9-3.3-15.8-9.2-22.2l0,0
	c-1.8-2-3.9-3.8-6.1-5.4c-2.2-1.5-4.5-2.8-6.8-3.9c-4.2-1.8-8.6-2.7-12.9-2.7c-5.6,0-9.9,1.3-12.8,3.9c-0.8,0.7-1.5,1.6-2.1,2.5
	c-1.7,2.8-1.8,5.5-1.8,6c0,2.6,0.8,5.1,2.3,7.1c0.5,0.6,1,1.2,1.6,1.8c2.1,1.9,5.1,3.1,8.5,3.6c1.5,0.2,3,0.5,4.4,0.8
	c5.3,1.4,9.8,4,13.2,7.5l0.2,0.2c3.5,3.8,5.6,8.5,6,13.8c0.1,0.8,0.1,1.5,0.1,2.2c0,4.5-0.9,8.4-2.8,11.9c-0.9,1.7-2,3.2-3.3,4.6
	c-3.3,3.4-7.8,6-13.4,7.6c-5.3,1.5-10,1.8-12.3,1.8h-1.5C129,110.3,124.7,109.5,120.6,108z"/>
<g>
	<path class="st0" d="M110.7,110.6H89.1L87,92.7H62.3l-8.2,17.9H33l41-80.9h21.9L110.7,110.6z M85.6,81.1l-3.9-30.7l-14,30.7H85.6z"
		/>
</g>
<g>
	<path class="st1" d="M278.4,49.1h-2.7c-0.3,0-0.6-0.1-0.7-0.2c-0.2-0.2-0.3-0.3-0.4-0.6l-1.4-3.8h-7.8l-1.4,3.8
		c-0.1,0.2-0.2,0.4-0.4,0.5c-0.2,0.2-0.5,0.2-0.7,0.2h-2.7l7.4-18.8h3.6L278.4,49.1z M266.3,42h6l-2.3-6.3c-0.1-0.3-0.2-0.6-0.3-1
		c-0.1-0.4-0.2-0.8-0.4-1.2c-0.1,0.4-0.2,0.9-0.4,1.2c-0.1,0.4-0.2,0.7-0.3,1L266.3,42z"/>
	<path class="st1" d="M280.2,49.1V35.7h2c0.4,0,0.7,0.2,0.8,0.6l0.2,1c0.2-0.3,0.5-0.5,0.7-0.7c0.3-0.2,0.5-0.4,0.8-0.6
		c0.3-0.2,0.6-0.3,0.9-0.4c0.3-0.1,0.7-0.1,1.1-0.1c0.8,0,1.5,0.2,2.1,0.7c0.5,0.5,0.9,1.1,1.2,1.8c0.2-0.4,0.5-0.8,0.8-1.1
		s0.7-0.6,1-0.8c0.4-0.2,0.8-0.3,1.2-0.4c0.4-0.1,0.8-0.1,1.3-0.1c0.7,0,1.4,0.1,2,0.3s1.1,0.6,1.4,1c0.4,0.4,0.7,1,0.9,1.6
		c0.2,0.6,0.3,1.3,0.3,2.1v8.5h-3.2v-8.5c0-0.8-0.2-1.5-0.6-1.9c-0.4-0.4-0.9-0.6-1.6-0.6c-0.3,0-0.6,0.1-0.9,0.2
		c-0.3,0.1-0.5,0.3-0.7,0.5c-0.2,0.2-0.4,0.5-0.5,0.8s-0.2,0.7-0.2,1.1v8.5H288v-8.5c0-0.9-0.2-1.5-0.5-2c-0.3-0.5-0.9-0.6-1.6-0.6
		c-0.5,0-0.9,0.1-1.3,0.3s-0.8,0.5-1.1,0.9v9.8H280.2z"/>
	<path class="st1" d="M307.6,35.5c0.8,0,1.6,0.1,2.3,0.4c0.7,0.3,1.3,0.7,1.8,1.2s0.9,1.1,1.2,1.9s0.4,1.6,0.4,2.6
		c0,0.2,0,0.4,0,0.6s-0.1,0.3-0.1,0.4c0,0.1-0.1,0.2-0.2,0.2s-0.2,0.1-0.4,0.1h-8.2c0.1,1.4,0.5,2.4,1.1,3c0.6,0.6,1.5,1,2.5,1
		c0.5,0,1-0.1,1.3-0.2c0.4-0.1,0.7-0.3,1-0.4c0.3-0.1,0.5-0.3,0.7-0.4c0.2-0.1,0.4-0.2,0.6-0.2c0.1,0,0.2,0,0.3,0.1
		c0.1,0.1,0.2,0.1,0.2,0.2l0.9,1.2c-0.4,0.4-0.8,0.8-1.2,1c-0.4,0.3-0.9,0.5-1.4,0.7s-1,0.3-1.5,0.4c-0.5,0.1-1,0.1-1.5,0.1
		c-0.9,0-1.8-0.2-2.6-0.5c-0.8-0.3-1.5-0.8-2.1-1.4c-0.6-0.6-1.1-1.3-1.4-2.2c-0.3-0.9-0.5-1.9-0.5-3.1c0-0.9,0.1-1.8,0.4-2.6
		c0.3-0.8,0.7-1.5,1.3-2.1c0.6-0.6,1.2-1.1,2-1.4S306.6,35.5,307.6,35.5z M307.6,37.8c-0.9,0-1.7,0.3-2.2,0.8s-0.9,1.3-1,2.2h6
		c0-0.4-0.1-0.8-0.2-1.2c-0.1-0.4-0.3-0.7-0.5-1s-0.5-0.5-0.9-0.7C308.4,37.7,308.1,37.8,307.6,37.8z"/>
	<path class="st1" d="M316,49.1V35.7h1.9c0.3,0,0.6,0.1,0.7,0.2c0.1,0.1,0.2,0.3,0.3,0.6l0.2,1.6c0.5-0.8,1-1.5,1.7-2
		c0.6-0.5,1.4-0.7,2.2-0.7c0.7,0,1.2,0.2,1.6,0.5l-0.4,2.4c0,0.2-0.1,0.3-0.2,0.3s-0.2,0.1-0.4,0.1c-0.1,0-0.3,0-0.5-0.1
		c-0.2-0.1-0.5-0.1-0.9-0.1c-0.7,0-1.2,0.2-1.7,0.6s-0.9,0.9-1.2,1.6V49L316,49.1L316,49.1z"/>
	<path class="st1" d="M330.5,31.8c0,0.3-0.1,0.5-0.2,0.8c-0.1,0.2-0.3,0.5-0.4,0.6c-0.2,0.2-0.4,0.3-0.7,0.4
		c-0.3,0.1-0.5,0.2-0.8,0.2s-0.5-0.1-0.8-0.2c-0.2-0.1-0.5-0.3-0.6-0.4c-0.2-0.2-0.3-0.4-0.4-0.6s-0.2-0.5-0.2-0.8
		c0-0.3,0.1-0.6,0.2-0.8c0.1-0.3,0.3-0.5,0.4-0.7c0.2-0.2,0.4-0.3,0.6-0.4c0.2-0.1,0.5-0.2,0.8-0.2s0.6,0.1,0.8,0.2
		c0.3,0.1,0.5,0.3,0.7,0.4c0.2,0.2,0.3,0.4,0.4,0.7C330.4,31.3,330.5,31.6,330.5,31.8z M330,35.7V49h-3.2V35.7H330z"/>
	<path class="st1" d="M343,38.6c-0.1,0.1-0.2,0.2-0.3,0.3c-0.1,0.1-0.2,0.1-0.4,0.1c-0.2,0-0.3,0-0.5-0.1c-0.2-0.1-0.3-0.2-0.6-0.3
		c-0.2-0.1-0.5-0.2-0.8-0.3c-0.3-0.1-0.7-0.1-1.1-0.1c-0.6,0-1.1,0.1-1.5,0.3c-0.4,0.2-0.8,0.5-1.1,0.9c-0.3,0.4-0.5,0.8-0.6,1.4
		c-0.1,0.5-0.2,1.2-0.2,1.8c0,0.7,0.1,1.3,0.2,1.9c0.2,0.6,0.4,1,0.7,1.4c0.3,0.4,0.6,0.7,1,0.9c0.4,0.2,0.9,0.3,1.4,0.3
		s0.9-0.1,1.2-0.2c0.3-0.1,0.6-0.3,0.8-0.4c0.2-0.2,0.4-0.3,0.6-0.4c0.2-0.1,0.3-0.2,0.5-0.2c0.3,0,0.5,0.1,0.6,0.3l0.9,1.2
		c-0.4,0.4-0.7,0.8-1.2,1s-0.8,0.5-1.3,0.7s-0.9,0.3-1.4,0.4c-0.5,0.1-0.9,0.1-1.4,0.1c-0.8,0-1.6-0.2-2.3-0.5
		c-0.7-0.3-1.4-0.8-1.9-1.3c-0.5-0.6-1-1.3-1.3-2.2c-0.3-0.9-0.5-1.8-0.5-2.9c0-1,0.1-1.9,0.4-2.7s0.7-1.6,1.2-2.2
		c0.5-0.6,1.2-1.1,2-1.4s1.7-0.5,2.8-0.5c1,0,1.9,0.2,2.6,0.5c0.8,0.3,1.4,0.8,2,1.4L343,38.6z"/>
	<path class="st1" d="M356.5,49.1H355c-0.3,0-0.5,0-0.7-0.1c-0.2-0.1-0.3-0.3-0.4-0.6l-0.3-0.9c-0.3,0.3-0.7,0.6-1,0.8
		c-0.3,0.2-0.7,0.4-1,0.6s-0.7,0.3-1.1,0.4c-0.4,0.1-0.8,0.1-1.3,0.1c-0.6,0-1.1-0.1-1.6-0.2c-0.5-0.2-0.9-0.4-1.2-0.7
		c-0.3-0.3-0.6-0.7-0.8-1.1c-0.2-0.4-0.3-1-0.3-1.6c0-0.5,0.1-1,0.4-1.5s0.7-0.9,1.3-1.3c0.6-0.4,1.4-0.7,2.5-1
		c1-0.3,2.3-0.4,3.8-0.4v-0.8c0-0.9-0.2-1.6-0.6-2c-0.4-0.4-0.9-0.6-1.6-0.6c-0.5,0-1,0.1-1.3,0.2c-0.3,0.1-0.6,0.3-0.9,0.4
		c-0.3,0.2-0.5,0.3-0.7,0.4c-0.2,0.1-0.5,0.2-0.7,0.2s-0.4-0.1-0.6-0.2c-0.2-0.1-0.3-0.3-0.4-0.4l-0.6-1c1.5-1.4,3.4-2.1,5.6-2.1
		c0.8,0,1.5,0.1,2.1,0.4s1.1,0.6,1.6,1.1c0.4,0.5,0.7,1,1,1.6c0.2,0.6,0.3,1.3,0.3,2.1L356.5,49.1L356.5,49.1z M350.2,47.1
		c0.3,0,0.6,0,0.9-0.1c0.3-0.1,0.5-0.1,0.8-0.3c0.2-0.1,0.5-0.3,0.7-0.4c0.2-0.2,0.5-0.4,0.7-0.6v-2.2c-0.9,0-1.7,0.1-2.3,0.2
		c-0.6,0.1-1.1,0.3-1.5,0.5s-0.7,0.4-0.8,0.6c-0.2,0.2-0.2,0.5-0.2,0.8c0,0.6,0.2,1,0.5,1.2C349.3,46.9,349.7,47.1,350.2,47.1z"/>
	<path class="st1" d="M359.6,49.1V35.7h2c0.4,0,0.7,0.2,0.8,0.6l0.2,1.1c0.3-0.3,0.6-0.5,0.9-0.8c0.3-0.2,0.6-0.4,0.9-0.6
		s0.7-0.3,1.1-0.4s0.8-0.1,1.2-0.1c0.7,0,1.4,0.1,1.9,0.4c0.6,0.2,1,0.6,1.4,1c0.4,0.4,0.7,1,0.9,1.6c0.2,0.6,0.3,1.3,0.3,2V49H368
		v-8.5c0-0.8-0.2-1.4-0.6-1.9s-0.9-0.7-1.7-0.7c-0.6,0-1.1,0.1-1.6,0.4s-0.9,0.6-1.4,1v9.6h-3.1V49.1z"/>
	<path class="st1" d="M272,64.9c-0.1,0.2-0.2,0.3-0.3,0.4s-0.3,0.1-0.4,0.1c-0.2,0-0.4-0.1-0.6-0.2c-0.2-0.1-0.5-0.3-0.8-0.4
		c-0.3-0.1-0.6-0.3-1-0.4c-0.4-0.1-0.9-0.2-1.4-0.2s-0.9,0.1-1.3,0.2c-0.4,0.1-0.7,0.3-0.9,0.5c-0.2,0.2-0.4,0.5-0.6,0.7
		c-0.1,0.3-0.2,0.6-0.2,1s0.1,0.8,0.4,1.1c0.2,0.3,0.6,0.5,1,0.8c0.4,0.3,0.9,0.4,1.4,0.6s1.1,0.3,1.6,0.5c0.5,0.2,1.1,0.4,1.6,0.6
		s1,0.6,1.4,0.9c0.4,0.4,0.7,0.8,1,1.4c0.3,0.6,0.4,1.2,0.4,2c0,0.8-0.1,1.6-0.4,2.4c-0.3,0.7-0.7,1.4-1.3,1.9c-0.6,0.6-1.2,1-2,1.3
		c-0.8,0.3-1.7,0.5-2.8,0.5c-0.6,0-1.2-0.1-1.8-0.2s-1.1-0.3-1.7-0.5c-0.5-0.2-1-0.5-1.5-0.8c-0.5-0.3-0.9-0.6-1.2-1l1-1.7
		c0.1-0.1,0.2-0.2,0.3-0.3s0.3-0.1,0.4-0.1c0.2,0,0.5,0.1,0.7,0.3c0.3,0.2,0.5,0.4,0.9,0.6c0.3,0.2,0.7,0.4,1.2,0.6s1,0.3,1.7,0.3
		c1,0,1.8-0.2,2.3-0.7s0.8-1.2,0.8-2c0-0.5-0.1-0.9-0.4-1.2c-0.2-0.3-0.6-0.6-1-0.8c-0.4-0.2-0.9-0.4-1.4-0.5s-1-0.3-1.6-0.5
		c-0.5-0.2-1.1-0.4-1.6-0.6c-0.5-0.2-1-0.6-1.4-0.9c-0.4-0.4-0.7-0.9-1-1.5c-0.2-0.6-0.4-1.3-0.4-2.2c0-0.7,0.1-1.4,0.4-2
		c0.3-0.7,0.7-1.2,1.2-1.7s1.2-0.9,1.9-1.2c0.8-0.3,1.6-0.5,2.6-0.5c1.1,0,2.1,0.2,3.1,0.5c0.9,0.3,1.7,0.8,2.4,1.5L272,64.9z"/>
	<path class="st1" d="M281.4,66.7c1,0,1.9,0.2,2.7,0.5c0.8,0.3,1.5,0.8,2.1,1.4s1,1.3,1.3,2.2c0.3,0.8,0.5,1.8,0.5,2.8
		c0,1.1-0.2,2-0.5,2.9c-0.3,0.8-0.8,1.6-1.3,2.2c-0.6,0.6-1.3,1.1-2.1,1.4c-0.8,0.3-1.7,0.5-2.7,0.5s-1.9-0.2-2.7-0.5
		c-0.8-0.3-1.5-0.8-2.1-1.4c-0.6-0.6-1-1.3-1.3-2.2c-0.3-0.9-0.5-1.8-0.5-2.9c0-1,0.2-2,0.5-2.8c0.3-0.8,0.8-1.6,1.3-2.2
		c0.6-0.6,1.3-1,2.1-1.4C279.5,66.9,280.4,66.7,281.4,66.7z M281.4,78c1.1,0,1.9-0.4,2.5-1.1c0.5-0.7,0.8-1.8,0.8-3.3
		s-0.3-2.5-0.8-3.3c-0.5-0.8-1.4-1.1-2.5-1.1s-2,0.4-2.5,1.1c-0.5,0.8-0.8,1.9-0.8,3.3c0,1.4,0.3,2.5,0.8,3.3
		C279.4,77.7,280.2,78,281.4,78z"/>
	<path class="st1" d="M299.8,69.8c-0.1,0.1-0.2,0.2-0.3,0.3s-0.2,0.1-0.4,0.1c-0.2,0-0.3,0-0.5-0.1s-0.3-0.2-0.6-0.3
		c-0.2-0.1-0.5-0.2-0.8-0.3s-0.7-0.1-1.1-0.1c-0.6,0-1.1,0.1-1.5,0.3c-0.4,0.2-0.8,0.5-1.1,0.9c-0.3,0.4-0.5,0.8-0.6,1.4
		c-0.1,0.5-0.2,1.2-0.2,1.8c0,0.7,0.1,1.3,0.2,1.9c0.2,0.6,0.4,1,0.7,1.4s0.6,0.7,1,0.9c0.4,0.2,0.9,0.3,1.4,0.3s0.9-0.1,1.2-0.2
		c0.3-0.1,0.6-0.3,0.8-0.4c0.2-0.1,0.4-0.3,0.6-0.4c0.2-0.1,0.3-0.2,0.5-0.2c0.3,0,0.5,0.1,0.6,0.3l0.9,1.2c-0.4,0.4-0.7,0.8-1.2,1
		c-0.5,0.2-0.8,0.5-1.3,0.7c-0.5,0.2-0.9,0.3-1.4,0.4c-0.5,0.1-0.9,0.1-1.4,0.1c-0.8,0-1.6-0.2-2.3-0.5c-0.7-0.3-1.4-0.8-1.9-1.3
		c-0.5-0.6-1-1.3-1.3-2.2s-0.5-1.8-0.5-2.9c0-1,0.1-1.9,0.4-2.7c0.3-0.8,0.7-1.6,1.2-2.2s1.2-1.1,2-1.4s1.7-0.5,2.8-0.5
		c1,0,1.9,0.2,2.6,0.5c0.8,0.3,1.4,0.8,2,1.4L299.8,69.8z"/>
	<path class="st1" d="M306.7,63c0,0.3-0.1,0.5-0.2,0.8c-0.1,0.2-0.3,0.5-0.4,0.6c-0.2,0.2-0.4,0.3-0.7,0.4c-0.3,0.1-0.5,0.2-0.8,0.2
		s-0.5-0.1-0.8-0.2c-0.2-0.1-0.5-0.3-0.6-0.4c-0.2-0.2-0.3-0.4-0.4-0.6c-0.1-0.2-0.2-0.5-0.2-0.8s0.1-0.6,0.2-0.8
		c0.1-0.3,0.3-0.5,0.4-0.7c0.2-0.2,0.4-0.3,0.6-0.4c0.2-0.1,0.5-0.2,0.8-0.2s0.6,0.1,0.8,0.2c0.3,0.1,0.5,0.3,0.7,0.4
		c0.2,0.2,0.3,0.4,0.4,0.7C306.7,62.5,306.7,62.8,306.7,63z M306.3,66.9v13.3h-3.2V66.9H306.3z"/>
	<path class="st1" d="M315.6,66.7c1,0,1.9,0.2,2.7,0.5c0.8,0.3,1.5,0.8,2.1,1.4s1,1.3,1.3,2.2c0.3,0.8,0.5,1.8,0.5,2.8
		c0,1.1-0.2,2-0.5,2.9c-0.3,0.8-0.8,1.6-1.3,2.2c-0.6,0.6-1.3,1.1-2.1,1.4s-1.7,0.5-2.7,0.5s-1.9-0.2-2.7-0.5
		c-0.8-0.3-1.5-0.8-2.1-1.4c-0.6-0.6-1-1.3-1.3-2.2s-0.5-1.8-0.5-2.9c0-1,0.2-2,0.5-2.8c0.3-0.8,0.8-1.6,1.3-2.2
		c0.6-0.6,1.3-1,2.1-1.4C313.7,66.9,314.6,66.7,315.6,66.7z M315.6,78c1.1,0,1.9-0.4,2.5-1.1c0.5-0.7,0.8-1.8,0.8-3.3
		s-0.3-2.5-0.8-3.3c-0.5-0.8-1.4-1.1-2.5-1.1s-2,0.4-2.5,1.1c-0.5,0.8-0.8,1.9-0.8,3.3c0,1.4,0.3,2.5,0.8,3.3
		C313.6,77.7,314.5,78,315.6,78z"/>
	<path class="st1" d="M328.1,61v19.3h-3.2V61H328.1z"/>
	<path class="st1" d="M337.4,66.7c1,0,1.9,0.2,2.7,0.5c0.8,0.3,1.5,0.8,2.1,1.4s1,1.3,1.3,2.2c0.3,0.8,0.5,1.8,0.5,2.8
		c0,1.1-0.2,2-0.5,2.9c-0.3,0.8-0.8,1.6-1.3,2.2c-0.6,0.6-1.3,1.1-2.1,1.4s-1.7,0.5-2.7,0.5s-1.9-0.2-2.7-0.5
		c-0.8-0.3-1.5-0.8-2.1-1.4c-0.6-0.6-1-1.3-1.3-2.2s-0.5-1.8-0.5-2.9c0-1,0.2-2,0.5-2.8c0.3-0.8,0.8-1.6,1.3-2.2
		c0.6-0.6,1.3-1,2.1-1.4C335.5,66.9,336.4,66.7,337.4,66.7z M337.4,78c1.1,0,1.9-0.4,2.5-1.1c0.5-0.7,0.8-1.8,0.8-3.3
		s-0.3-2.5-0.8-3.3c-0.5-0.8-1.4-1.1-2.5-1.1s-2,0.4-2.5,1.1c-0.5,0.8-0.8,1.9-0.8,3.3c0,1.4,0.3,2.5,0.8,3.3
		C335.4,77.7,336.3,78,337.4,78z"/>
	<path class="st1" d="M351.1,66.7c0.6,0,1.1,0.1,1.6,0.2c0.5,0.1,1,0.3,1.4,0.5h3.8v1.2c0,0.2-0.1,0.4-0.2,0.5s-0.3,0.2-0.5,0.2
		l-1.2,0.2c0.1,0.2,0.2,0.5,0.2,0.7c0,0.2,0.1,0.5,0.1,0.8c0,0.7-0.1,1.3-0.4,1.8s-0.6,1-1.1,1.4s-1,0.7-1.7,0.9
		c-0.6,0.2-1.3,0.3-2.1,0.3c-0.5,0-1,0-1.5-0.1c-0.4,0.3-0.6,0.5-0.6,0.9c0,0.3,0.1,0.5,0.4,0.6c0.2,0.1,0.6,0.2,1,0.3
		s0.9,0.1,1.4,0.1s1,0,1.6,0.1c0.5,0,1.1,0.1,1.6,0.2s1,0.3,1.4,0.5c0.4,0.2,0.7,0.6,1,1s0.4,0.9,0.4,1.6c0,0.6-0.1,1.2-0.4,1.7
		c-0.3,0.6-0.7,1.1-1.3,1.5c-0.5,0.4-1.2,0.8-2,1c-0.8,0.3-1.7,0.4-2.7,0.4s-1.9-0.1-2.6-0.3c-0.7-0.2-1.4-0.5-1.9-0.8
		c-0.5-0.3-0.9-0.7-1.1-1.1c-0.2-0.4-0.4-0.9-0.4-1.3c0-0.6,0.2-1.1,0.6-1.6c0.4-0.4,0.9-0.8,1.6-1c-0.3-0.2-0.6-0.4-0.8-0.7
		c-0.2-0.3-0.3-0.7-0.3-1.2c0-0.2,0-0.4,0.1-0.6s0.2-0.4,0.3-0.6c0.1-0.2,0.3-0.4,0.5-0.6s0.5-0.4,0.8-0.5c-0.7-0.4-1.2-0.8-1.6-1.5
		c-0.4-0.7-0.6-1.3-0.6-2.1c0-0.7,0.1-1.3,0.4-1.8s0.6-1,1.1-1.4s1-0.7,1.7-0.9C349.8,67,350.4,66.7,351.1,66.7z M354.6,80.8
		c0-0.3-0.1-0.5-0.2-0.6c-0.2-0.2-0.4-0.3-0.6-0.4c-0.3-0.1-0.6-0.2-0.9-0.2c-0.4,0-0.7-0.1-1.1-0.1s-0.8,0-1.2,0s-0.8,0-1.2-0.1
		c-0.4,0.2-0.7,0.4-0.9,0.7c-0.2,0.3-0.3,0.6-0.3,0.9c0,0.2,0.1,0.5,0.2,0.7c0.1,0.2,0.3,0.4,0.6,0.5s0.6,0.3,1,0.3s0.9,0.1,1.5,0.1
		s1.1,0,1.5-0.1s0.8-0.2,1.1-0.4c0.3-0.2,0.5-0.4,0.6-0.6S354.6,81.1,354.6,80.8z M351.1,73.3c0.4,0,0.7-0.1,1-0.2
		c0.3-0.1,0.5-0.3,0.7-0.4c0.2-0.2,0.3-0.4,0.4-0.7c0.1-0.3,0.1-0.6,0.1-0.9c0-0.7-0.2-1.2-0.6-1.6s-1-0.6-1.8-0.6s-1.4,0.2-1.8,0.6
		c-0.4,0.4-0.6,0.9-0.6,1.6c0,0.3,0,0.6,0.1,0.9s0.2,0.5,0.4,0.7c0.2,0.2,0.4,0.3,0.7,0.5C350.4,73.2,350.7,73.3,351.1,73.3z"/>
	<path class="st1" d="M363.9,63c0,0.3-0.1,0.5-0.2,0.8c-0.1,0.2-0.3,0.5-0.4,0.6c-0.2,0.2-0.4,0.3-0.7,0.4c-0.3,0.1-0.5,0.2-0.8,0.2
		s-0.5-0.1-0.8-0.2c-0.2-0.1-0.5-0.3-0.6-0.4c-0.2-0.2-0.3-0.4-0.4-0.6c-0.1-0.2-0.2-0.5-0.2-0.8s0.1-0.6,0.2-0.8
		c0.1-0.3,0.3-0.5,0.4-0.7c0.2-0.2,0.4-0.3,0.6-0.4c0.2-0.1,0.5-0.2,0.8-0.2s0.6,0.1,0.8,0.2c0.3,0.1,0.5,0.3,0.7,0.4
		c0.2,0.2,0.3,0.4,0.4,0.7S363.9,62.8,363.9,63z M363.4,66.9v13.3h-3.2V66.9H363.4z"/>
	<path class="st1" d="M376.4,69.8c-0.1,0.1-0.2,0.2-0.3,0.3s-0.2,0.1-0.4,0.1c-0.2,0-0.3,0-0.5-0.1s-0.3-0.2-0.6-0.3
		c-0.2-0.1-0.5-0.2-0.8-0.3s-0.7-0.1-1.1-0.1c-0.6,0-1.1,0.1-1.5,0.3c-0.4,0.2-0.8,0.5-1.1,0.9c-0.3,0.4-0.5,0.8-0.6,1.4
		c-0.1,0.5-0.2,1.2-0.2,1.8c0,0.7,0.1,1.3,0.2,1.9c0.2,0.6,0.4,1,0.7,1.4s0.6,0.7,1,0.9c0.4,0.2,0.9,0.3,1.4,0.3s0.9-0.1,1.2-0.2
		c0.3-0.1,0.6-0.3,0.8-0.4c0.2-0.1,0.4-0.3,0.6-0.4c0.2-0.1,0.3-0.2,0.5-0.2c0.3,0,0.5,0.1,0.6,0.3l0.9,1.2c-0.4,0.4-0.7,0.8-1.2,1
		c-0.5,0.2-0.8,0.5-1.3,0.7c-0.5,0.2-0.9,0.3-1.4,0.4c-0.5,0.1-0.9,0.1-1.4,0.1c-0.8,0-1.6-0.2-2.3-0.5c-0.7-0.3-1.4-0.8-1.9-1.3
		c-0.5-0.6-1-1.3-1.3-2.2s-0.5-1.8-0.5-2.9c0-1,0.1-1.9,0.4-2.7c0.3-0.8,0.7-1.6,1.2-2.2s1.2-1.1,2-1.4s1.7-0.5,2.8-0.5
		c1,0,1.9,0.2,2.6,0.5c0.8,0.3,1.4,0.8,2,1.4L376.4,69.8z"/>
	<path class="st1" d="M389.9,80.3h-1.4c-0.3,0-0.5,0-0.7-0.1s-0.3-0.3-0.4-0.6l-0.3-0.9c-0.3,0.3-0.7,0.6-1,0.8
		c-0.3,0.2-0.7,0.4-1,0.6s-0.7,0.3-1.1,0.4c-0.4,0.1-0.8,0.1-1.3,0.1c-0.6,0-1.1-0.1-1.6-0.2c-0.5-0.2-0.9-0.4-1.2-0.7
		c-0.3-0.3-0.6-0.7-0.8-1.1c-0.2-0.4-0.3-1-0.3-1.6c0-0.5,0.1-1,0.4-1.5s0.7-0.9,1.3-1.3c0.6-0.4,1.4-0.7,2.5-1
		c1.1-0.3,2.3-0.4,3.8-0.4V72c0-0.9-0.2-1.6-0.6-2s-0.9-0.6-1.6-0.6c-0.5,0-1,0.1-1.3,0.2s-0.6,0.3-0.9,0.4
		c-0.3,0.2-0.5,0.3-0.7,0.4s-0.5,0.2-0.7,0.2s-0.4-0.1-0.6-0.2c-0.2-0.1-0.3-0.3-0.4-0.4l-0.6-1c1.5-1.4,3.4-2.1,5.6-2.1
		c0.8,0,1.5,0.1,2.1,0.4s1.1,0.6,1.6,1.1c0.4,0.5,0.7,1,1,1.6c0.2,0.6,0.3,1.3,0.3,2.1L389.9,80.3L389.9,80.3z M383.6,78.3
		c0.3,0,0.6,0,0.9-0.1s0.5-0.1,0.8-0.3c0.2-0.1,0.5-0.3,0.7-0.4c0.2-0.2,0.5-0.4,0.7-0.6v-2.2c-0.9,0-1.7,0.1-2.3,0.2
		c-0.6,0.1-1.1,0.3-1.5,0.5c-0.4,0.2-0.7,0.4-0.8,0.6s-0.2,0.5-0.2,0.8c0,0.6,0.2,1,0.5,1.2C382.6,78.1,383.1,78.3,383.6,78.3z"/>
	<path class="st1" d="M396.4,61v19.3h-3.2V61H396.4z"/>
	<path class="st1" d="M278.4,111.5h-2.7c-0.3,0-0.6-0.1-0.7-0.2c-0.2-0.2-0.3-0.3-0.4-0.6l-1.4-3.8h-7.8l-1.4,3.8
		c-0.1,0.2-0.2,0.4-0.4,0.5c-0.2,0.2-0.5,0.2-0.7,0.2h-2.7l7.4-18.8h3.6L278.4,111.5z M266.3,104.4h6l-2.3-6.3
		c-0.1-0.3-0.2-0.6-0.3-1s-0.2-0.8-0.4-1.2c-0.1,0.4-0.2,0.9-0.4,1.2c-0.1,0.4-0.2,0.7-0.3,1L266.3,104.4z"/>
	<path class="st1" d="M288.1,100.7c-0.1,0.1-0.2,0.2-0.3,0.3c-0.1,0.1-0.2,0.1-0.4,0.1c-0.2,0-0.3,0-0.5-0.1
		c-0.2-0.1-0.4-0.2-0.6-0.3s-0.5-0.2-0.8-0.3c-0.3-0.1-0.7-0.1-1.1-0.1c-0.6,0-1.1,0.1-1.5,0.4s-0.5,0.6-0.5,1.1
		c0,0.3,0.1,0.5,0.3,0.7c0.2,0.2,0.4,0.4,0.7,0.5c0.3,0.1,0.7,0.3,1,0.4c0.4,0.1,0.8,0.2,1.2,0.4c0.4,0.1,0.8,0.3,1.2,0.5
		s0.7,0.4,1,0.7c0.3,0.3,0.6,0.6,0.7,1c0.2,0.4,0.3,0.8,0.3,1.4s-0.1,1.2-0.4,1.8c-0.2,0.5-0.6,1-1,1.4c-0.5,0.4-1,0.7-1.7,0.9
		c-0.7,0.2-1.4,0.3-2.3,0.3c-0.5,0-0.9,0-1.3-0.1c-0.4-0.1-0.9-0.2-1.3-0.3c-0.4-0.1-0.8-0.3-1.1-0.5c-0.3-0.2-0.6-0.4-0.9-0.6
		l0.7-1.2c0.1-0.1,0.2-0.3,0.3-0.3s0.3-0.1,0.5-0.1c0.2,0,0.4,0.1,0.6,0.2c0.2,0.1,0.4,0.2,0.6,0.4c0.2,0.1,0.5,0.3,0.8,0.4
		c0.3,0.1,0.7,0.2,1.2,0.2c0.4,0,0.7,0,1-0.1c0.3-0.1,0.5-0.2,0.7-0.4c0.2-0.2,0.3-0.3,0.4-0.5c0.1-0.2,0.1-0.4,0.1-0.6
		c0-0.3-0.1-0.6-0.3-0.8c-0.2-0.2-0.4-0.4-0.7-0.5c-0.3-0.1-0.7-0.3-1.1-0.4c-0.4-0.1-0.8-0.2-1.2-0.4c-0.4-0.1-0.8-0.3-1.2-0.5
		s-0.7-0.4-1.1-0.7c-0.4-0.3-0.6-0.6-0.7-1.1c-0.2-0.4-0.3-0.9-0.3-1.5c0-0.5,0.1-1.1,0.3-1.6c0.2-0.5,0.5-0.9,1-1.3
		c0.4-0.4,0.9-0.7,1.6-0.9c0.6-0.2,1.4-0.3,2.2-0.3c0.9,0,1.8,0.2,2.5,0.5c0.8,0.3,1.4,0.7,1.9,1.2L288.1,100.7z"/>
	<path class="st1" d="M299.5,100.7c-0.1,0.1-0.2,0.2-0.3,0.3c-0.1,0.1-0.2,0.1-0.4,0.1c-0.2,0-0.3,0-0.5-0.1s-0.4-0.2-0.6-0.3
		s-0.5-0.2-0.8-0.3c-0.3-0.1-0.7-0.1-1.1-0.1c-0.6,0-1.1,0.1-1.5,0.4s-0.5,0.6-0.5,1.1c0,0.3,0.1,0.5,0.3,0.7
		c0.2,0.2,0.4,0.4,0.7,0.5s0.7,0.3,1,0.4c0.4,0.1,0.8,0.2,1.2,0.4c0.4,0.1,0.8,0.3,1.2,0.5c0.4,0.2,0.7,0.4,1,0.7
		c0.3,0.3,0.6,0.6,0.7,1c0.2,0.4,0.3,0.8,0.3,1.4s-0.1,1.2-0.4,1.8c-0.2,0.5-0.6,1-1,1.4c-0.5,0.4-1,0.7-1.7,0.9
		c-0.7,0.2-1.4,0.3-2.3,0.3c-0.5,0-0.9,0-1.3-0.1s-0.9-0.2-1.3-0.3s-0.8-0.3-1.1-0.5c-0.3-0.2-0.6-0.4-0.9-0.6l0.7-1.2
		c0.1-0.1,0.2-0.3,0.3-0.3s0.3-0.1,0.5-0.1s0.4,0.1,0.6,0.2s0.4,0.2,0.6,0.4c0.2,0.1,0.5,0.3,0.8,0.4s0.7,0.2,1.2,0.2
		c0.4,0,0.7,0,1-0.1s0.5-0.2,0.7-0.4s0.3-0.3,0.4-0.5s0.1-0.4,0.1-0.6c0-0.3-0.1-0.6-0.3-0.8s-0.4-0.4-0.7-0.5
		c-0.3-0.1-0.7-0.3-1.1-0.4s-0.8-0.2-1.2-0.4c-0.4-0.1-0.8-0.3-1.2-0.5c-0.4-0.2-0.7-0.4-1.1-0.7s-0.6-0.6-0.7-1.1
		c-0.2-0.4-0.3-0.9-0.3-1.5c0-0.5,0.1-1.1,0.3-1.6s0.5-0.9,1-1.3c0.4-0.4,0.9-0.7,1.6-0.9c0.6-0.2,1.4-0.3,2.2-0.3
		c0.9,0,1.8,0.2,2.5,0.5c0.8,0.3,1.4,0.7,1.9,1.2L299.5,100.7z"/>
	<path class="st1" d="M308.6,97.9c1,0,1.9,0.2,2.7,0.5c0.8,0.3,1.5,0.8,2.1,1.4s1,1.3,1.3,2.2c0.3,0.8,0.5,1.8,0.5,2.8
		c0,1.1-0.2,2-0.5,2.9c-0.3,0.8-0.8,1.6-1.3,2.2c-0.6,0.6-1.3,1.1-2.1,1.4s-1.7,0.5-2.7,0.5s-1.9-0.2-2.7-0.5
		c-0.8-0.3-1.5-0.8-2.1-1.4s-1-1.3-1.3-2.2s-0.5-1.9-0.5-2.9s0.2-2,0.5-2.8s0.8-1.6,1.3-2.2c0.6-0.6,1.3-1,2.1-1.4
		C306.7,98.1,307.6,97.9,308.6,97.9z M308.6,109.2c1.1,0,1.9-0.4,2.5-1.1c0.5-0.7,0.8-1.8,0.8-3.3s-0.3-2.5-0.8-3.3
		s-1.4-1.1-2.5-1.1s-2,0.4-2.5,1.1c-0.5,0.8-0.8,1.9-0.8,3.3s0.3,2.5,0.8,3.3S307.5,109.2,308.6,109.2z"/>
	<path class="st1" d="M327.1,101c-0.1,0.1-0.2,0.2-0.3,0.3c-0.1,0.1-0.2,0.1-0.4,0.1c-0.2,0-0.3,0-0.5-0.1s-0.3-0.2-0.6-0.3
		s-0.5-0.2-0.8-0.3s-0.7-0.1-1.1-0.1c-0.6,0-1.1,0.1-1.5,0.3c-0.4,0.2-0.8,0.5-1.1,0.9c-0.3,0.4-0.5,0.8-0.6,1.4
		c-0.1,0.5-0.2,1.2-0.2,1.8c0,0.7,0.1,1.3,0.2,1.9c0.2,0.6,0.4,1,0.7,1.4s0.6,0.7,1,0.9c0.4,0.2,0.9,0.3,1.4,0.3s0.9-0.1,1.2-0.2
		s0.6-0.3,0.8-0.4s0.4-0.3,0.6-0.4s0.3-0.2,0.5-0.2c0.3,0,0.5,0.1,0.6,0.3l0.9,1.2c-0.4,0.4-0.7,0.8-1.2,1s-0.8,0.5-1.3,0.7
		s-0.9,0.3-1.4,0.4s-0.9,0.1-1.4,0.1c-0.8,0-1.6-0.2-2.3-0.5c-0.7-0.3-1.4-0.8-1.9-1.3c-0.5-0.6-1-1.3-1.3-2.2
		c-0.3-0.9-0.5-1.8-0.5-2.9c0-1,0.1-1.9,0.4-2.7c0.3-0.8,0.7-1.6,1.2-2.2s1.2-1.1,2-1.4s1.7-0.5,2.8-0.5c1,0,1.9,0.2,2.6,0.5
		c0.8,0.3,1.4,0.8,2,1.4L327.1,101z"/>
	<path class="st1" d="M334,94.2c0,0.3-0.1,0.5-0.2,0.8c-0.1,0.2-0.3,0.5-0.4,0.6c-0.2,0.2-0.4,0.3-0.7,0.4c-0.3,0.1-0.5,0.2-0.8,0.2
		s-0.5-0.1-0.8-0.2c-0.2-0.1-0.5-0.3-0.6-0.4c-0.2-0.2-0.3-0.4-0.4-0.6s-0.2-0.5-0.2-0.8s0.1-0.6,0.2-0.8c0.1-0.3,0.3-0.5,0.4-0.6
		c0.2-0.2,0.4-0.3,0.6-0.4s0.5-0.2,0.8-0.2s0.6,0.1,0.8,0.2c0.3,0.1,0.5,0.3,0.7,0.4c0.2,0.2,0.3,0.4,0.4,0.6
		C333.9,93.7,334,94,334,94.2z M333.5,98.1v13.3h-3.2V98.1H333.5z"/>
	<path class="st1" d="M347.6,111.5h-1.4c-0.3,0-0.5,0-0.7-0.1s-0.3-0.3-0.4-0.6l-0.3-0.9c-0.3,0.3-0.7,0.6-1,0.8
		c-0.3,0.2-0.7,0.4-1,0.6s-0.7,0.3-1.1,0.4s-0.8,0.1-1.3,0.1c-0.6,0-1.1-0.1-1.6-0.2c-0.5-0.2-0.9-0.4-1.2-0.7
		c-0.3-0.3-0.6-0.7-0.8-1.1s-0.3-1-0.3-1.6c0-0.5,0.1-1,0.4-1.5s0.7-0.9,1.3-1.3c0.6-0.4,1.4-0.7,2.5-1s2.3-0.4,3.8-0.4v-0.8
		c0-0.9-0.2-1.6-0.6-2s-0.9-0.6-1.6-0.6c-0.5,0-1,0.1-1.3,0.2s-0.6,0.3-0.9,0.4c-0.3,0.2-0.5,0.3-0.7,0.4s-0.5,0.2-0.7,0.2
		s-0.4-0.1-0.6-0.2s-0.3-0.3-0.4-0.4l-0.6-1c1.5-1.4,3.4-2.1,5.6-2.1c0.8,0,1.5,0.1,2.1,0.4s1.1,0.6,1.6,1.1s0.7,1,1,1.6
		c0.2,0.6,0.3,1.3,0.3,2.1L347.6,111.5L347.6,111.5z M341.3,109.5c0.3,0,0.6,0,0.9-0.1s0.5-0.1,0.8-0.3c0.2-0.1,0.5-0.3,0.7-0.4
		c0.2-0.2,0.5-0.4,0.7-0.6v-2.3c-0.9,0-1.7,0.1-2.3,0.2c-0.6,0.1-1.1,0.3-1.5,0.5s-0.7,0.4-0.8,0.6s-0.2,0.5-0.2,0.8
		c0,0.6,0.2,1,0.5,1.2C340.4,109.3,340.8,109.5,341.3,109.5z"/>
	<path class="st1" d="M355.1,111.7c-1.2,0-2-0.3-2.7-1s-0.9-1.6-0.9-2.7v-7.4h-1.4c-0.2,0-0.3-0.1-0.4-0.2s-0.2-0.3-0.2-0.5v-1.3
		l2.1-0.4l0.7-3.6c0-0.2,0.1-0.3,0.2-0.4s0.3-0.1,0.5-0.1h1.7v4.2h3.5v2.3h-3.5v7.2c0,0.4,0.1,0.7,0.3,1c0.2,0.2,0.5,0.4,0.8,0.4
		c0.2,0,0.4,0,0.5-0.1c0.1,0,0.3-0.1,0.4-0.1c0.1-0.1,0.2-0.1,0.3-0.1c0.1,0,0.2-0.1,0.2-0.1c0.1,0,0.2,0,0.2,0.1
		c0.1,0,0.1,0.1,0.2,0.2l1,1.6c-0.5,0.4-1,0.7-1.6,0.9C356.4,111.6,355.8,111.7,355.1,111.7z"/>
	<path class="st1" d="M364.7,94.2c0,0.3-0.1,0.5-0.2,0.8c-0.1,0.2-0.3,0.5-0.4,0.6c-0.2,0.2-0.4,0.3-0.7,0.4
		c-0.3,0.1-0.5,0.2-0.8,0.2s-0.5-0.1-0.8-0.2c-0.2-0.1-0.5-0.3-0.6-0.4c-0.2-0.2-0.3-0.4-0.4-0.6s-0.2-0.5-0.2-0.8s0.1-0.6,0.2-0.8
		c0.1-0.3,0.3-0.5,0.4-0.6c0.2-0.2,0.4-0.3,0.6-0.4s0.5-0.2,0.8-0.2s0.6,0.1,0.8,0.2c0.3,0.1,0.5,0.3,0.7,0.4
		c0.2,0.2,0.3,0.4,0.4,0.6C364.6,93.7,364.7,94,364.7,94.2z M364.2,98.1v13.3H361V98.1H364.2z"/>
	<path class="st1" d="M373.5,97.9c1,0,1.9,0.2,2.7,0.5c0.8,0.3,1.5,0.8,2.1,1.4s1,1.3,1.3,2.2c0.3,0.8,0.5,1.8,0.5,2.8
		c0,1.1-0.2,2-0.5,2.9c-0.3,0.8-0.8,1.6-1.3,2.2c-0.6,0.6-1.3,1.1-2.1,1.4s-1.7,0.5-2.7,0.5s-1.9-0.2-2.7-0.5
		c-0.8-0.3-1.5-0.8-2.1-1.4s-1-1.3-1.3-2.2s-0.5-1.8-0.5-2.9c0-1,0.2-2,0.5-2.8s0.8-1.6,1.3-2.2c0.6-0.6,1.3-1,2.1-1.4
		C371.6,98.1,372.5,97.9,373.5,97.9z M373.5,109.2c1.1,0,1.9-0.4,2.5-1.1c0.5-0.7,0.8-1.8,0.8-3.3s-0.3-2.5-0.8-3.3
		s-1.4-1.1-2.5-1.1s-2,0.4-2.5,1.1c-0.5,0.8-0.8,1.9-0.8,3.3s0.3,2.5,0.8,3.3S372.4,109.2,373.5,109.2z"/>
	<path class="st1" d="M382.6,111.5V98.1h2c0.4,0,0.7,0.2,0.8,0.6l0.2,1.1c0.3-0.3,0.6-0.5,0.9-0.8s0.6-0.4,0.9-0.6s0.7-0.3,1.1-0.4
		s0.8-0.1,1.2-0.1c0.7,0,1.4,0.1,1.9,0.4c0.6,0.2,1,0.6,1.4,1s0.7,1,0.9,1.6c0.2,0.6,0.3,1.3,0.3,2v8.5H391v-8.5
		c0-0.8-0.2-1.4-0.6-1.9c-0.4-0.4-0.9-0.7-1.7-0.7c-0.6,0-1.1,0.1-1.6,0.4s-0.9,0.6-1.4,1v9.6h-3.1V111.5z"/>
</g>
</svg>
